<svg width="151.248" height="151.248" viewBox="0 0 141.79883 141.79882" xmlns="http://www.w3.org/2000/svg" xmlns:xlink="http://www.w3.org/1999/xlink"><defs><pattern id="b" patternTransform="matrix(1.25 0 0 -1.25 -375.53 -193.08)" xlink:href="#a"/><pattern id="a" width="113.386" height="113.386" patternTransform="translate(0 800)" patternUnits="userSpaceOnUse"><path d="M0 0a15.17 15.17 0 0 0 .32-3.094c0-8.416-6.398-14.762-14.883-14.762-8.115 0-14.234 5.849-14.234 13.606 0 7.624 5.95 13.598 13.546 13.598 6.723 0 12.403-5.698 12.403-12.442 0-6.737-4.927-11.627-11.715-11.627-6.308 0-11.065 4.502-11.065 10.471 0 5.918 4.461 10.38 10.377 10.38 5.172 0 9.224-4.052 9.224-9.224 0-4.93-3.59-8.51-8.536-8.51-4.356 0-7.769 3.231-7.769 7.354 0 4.289 3.661 7.17 7.081 7.17 3.507 0 6.052-2.529 6.052-6.014 0-2.967-2.406-5.38-5.364-5.38-2.517 0-4.563 1.895-4.563 4.224 0 2.282 1.629 3.939 3.875 3.939 1.705 0 3.041-1.222 3.041-2.783 0-1.324-.989-2.4-2.205-2.4-.557 0-1.068.234-1.403.642a1.543 1.543 0 0 0-.327 1.286l.873-.176a.65.65 0 0 1 .143-.544.91.91 0 0 1 .714-.316c.786 0 1.313.78 1.313 1.508 0 1.061-.944 1.891-2.149 1.891-1.757 0-2.985-1.252-2.985-3.047 0-1.838 1.648-3.332 3.673-3.332 2.466 0 4.474 2.014 4.474 4.488 0 2.968-2.172 5.121-5.162 5.121-2.989 0-6.189-2.521-6.189-6.277 0-3.684 2.956-6.463 6.877-6.463 4.429 0 7.645 3.205 7.645 7.619 0 4.672-3.661 8.332-8.333 8.332-5.408 0-9.486-4.08-9.486-9.488 0-5.461 4.374-9.578 10.174-9.578 6.271 0 10.824 4.514 10.824 10.734 0 6.26-5.272 11.55-11.512 11.55-7.096 0-12.655-5.581-12.655-12.706 0-7.248 5.737-12.715 13.343-12.715 8.107 0 13.993 5.834 13.993 13.871 0 1.752-.338 3.438-.925 5.012A10.36 10.36 0 0 1 0 0m6.219 26.101c0-2.231-.653-3.992-1.685-5.32a12.576 12.576 0 0 1-1.684-.451c1.47 1.242 2.478 3.145 2.478 5.771 0 3.817-2.95 7.915-7.749 8.221.56.184 1.107.408 1.643.658 4.372-1.041 6.997-5.085 6.997-8.879m-3.119 0c0-2.609-1.541-4.557-3.89-5.138-.303.259-.62.506-.95.736 2.384.231 3.949 1.94 3.949 4.402 0 2.438-1.988 5.071-5.199 5.071-3.43 0-6.017-2.594-6.017-6.031 0-.385.041-.772.116-1.157-.067.001-.131.011-.199.011-.238 0-.467-.02-.701-.031a7.164 7.164 0 0 0-.107 1.177c0 3.947 2.97 6.922 6.908 6.922 3.358 0 6.09-2.674 6.09-5.962m5.253 1.438c.285-.575.607-1.127.976-1.646a12.143 12.143 0 0 0-1.11-4.927c-.314.025-.634.04-.959.047.76 1.501 1.189 3.223 1.189 5.088 0 .48-.04.96-.096 1.438m2.992-3.855c.256-.222.522-.431.796-.632a16.108 16.108 0 0 0-.765-2.714c-.279.092-.571.166-.861.24.386 1.006.665 2.049.83 3.106m-4.263 9.218c0-.474.034-.941.088-1.404-1.094 2.17-2.887 3.998-5.351 5.039.27.202.537.409.792.632a11.29 11.29 0 0 0 4.493-3.804c-.006-.156-.022-.305-.022-.463m-18.586 1.059c-.052.117-.116.228-.171.344.124-.043.245-.093.372-.131-.071-.069-.132-.143-.201-.213M2.599 39.59c-.118.129-.234.262-.347.396.116-.133.229-.267.349-.397l-.002.001m-13.184-9.253c-.036.425-.093.846-.176 1.259a9.526 9.526 0 0 0 2.216 2.033c.478-.047.963-.071 1.456-.071.109 0 .219.014.33.017a8.726 8.726 0 0 1-3.826-3.238m7.441-4.798c-.125-.211-.017-.445.035-.537a.938.938 0 0 1 .803-.461c.822 0 1.419.656 1.419 1.56 0 1.072-.944 1.944-2.103 1.944a2.875 2.875 0 0 1-2.908-2.904c0-.614.171-1.177.451-1.672-.363.105-.731.201-1.112.274a4.35 4.35 0 0 0-.23 1.398c0 2.129 1.668 3.796 3.799 3.796 1.651 0 2.993-1.273 2.993-2.836 0-1.398-.993-2.451-2.309-2.451-.652 0-1.257.348-1.577.911-.269.47-.28 1.005-.029 1.43l.768-.452zm-8.83-1.817c-.053-.011-.103-.026-.155-.036.047.075.086.158.131.236.009-.067.015-.135.024-.2m-52.32-27.961a9.37 9.37 0 0 1-4.395-1.064v1.001c1.316.614 2.798.963 4.395.963 5.744 0 9.299-4.792 9.299-9.231 0-1.487-.293-2.761-.787-3.846a12.915 12.915 0 0 1-3.369-3.587 9.143 9.143 0 0 0-3.017-1.002 9.9 9.9 0 0 1-2.138.828 7 7 0 0 1 .716-.038c3.706 0 7.695 2.393 7.695 7.645 0 4.007-3.211 8.331-8.399 8.331m0 3.141c-1.601 0-3.066-.298-4.395-.801v.356c.872.308 1.698.707 2.463 1.196.625.088 1.264.15 1.932.15 8.174 0 12.45-6.225 12.45-12.373 0-.69-.057-1.36-.159-2.01a13.56 13.56 0 0 1-.979-.334c.152.751.238 1.533.238 2.344 0 5.701-3.967 11.472-11.55 11.472m97.735-8.511c.277.154.536.336.797.512a15.37 15.37 0 0 1-.235-.854c-.259.162-.525.316-.798.46.077-.041.159-.076.236-.118m-101.14-10.283a7.975 7.975 0 0 0-.988.766v1.289c.827-.961 1.915-1.732 3.229-2.109-.441.059-.887.101-1.344.101-.303 0-.6-.021-.897-.047m-.988 10.633v1.222c1.183.936 2.699 1.487 4.395 1.487 3.391 0 6.149-2.701 6.149-6.02 0-3.163-2.239-5.372-5.445-5.372-2.545 0-4.539 1.933-4.539 4.401a3.795 3.795 0 0 0 3.835 3.834c1.668 0 3.024-1.284 3.024-2.863 0-1.411-1.002-2.476-2.332-2.476-.659 0-1.27.353-1.594.921-.271.475-.281 1.015-.027 1.444l.774-.459c-.125-.212-.017-.448.035-.54a.947.947 0 0 1 .812-.466c.83 0 1.432.663 1.432 1.576 0 1.082-.953 1.963-2.124 1.963a2.904 2.904 0 0 1-2.935-2.934c0-1.963 1.599-3.501 3.639-3.501 2.718 0 4.545 1.797 4.545 4.472 0 2.463-2.007 5.12-5.249 5.12-1.765 0-3.306-.683-4.395-1.809m113.38 7.714v-.353c-4.571-1.736-7.436-6.066-7.897-10.409-.249.279-.511.545-.784.804.598 3.667 2.759 7.242 6.153 9.358.879.11 1.723.317 2.528.6m0-6.492v-1.222c-1.049-1.084-1.679-2.579-1.679-4.282 0-1.515.62-3.064 1.679-4.296v-1.289c-1.567 1.397-2.58 3.394-2.58 5.585 0 2.285.989 4.245 2.58 5.504m0 3.735v-1.001c-2.897-1.528-4.788-4.57-4.788-8.238a9.94 9.94 0 0 1 2.888-7.014 10.35 10.35 0 0 1-.871-.377 10.823 10.823 0 0 0-2.917 7.391c0 4.2 2.267 7.644 5.688 9.239M40.025-22.11c-.088-.069-.17-.145-.256-.215.049.04.092.087.142.127.009.067.013.136.022.203.032-.037.06-.078.092-.115m-88.756 9.54c0-.482-.028-.965-.07-1.449a14.784 14.784 0 0 1-.913-.088c.051.512.083 1.026.083 1.537 0 6.998-5.168 14.207-13.851 14.638.232.279.45.569.658.868 8.85-.756 14.093-8.243 14.093-15.506m-.493 58.941c-.187-.082-.363-.177-.544-.267.097.177.185.36.272.542.093-.089.177-.188.272-.275m89.214 1.017a14.169 14.169 0 0 0-.323 3.002c0 .836.084 1.648.22 2.439.288-.083.58-.158.877-.222a13.341 13.341 0 0 1-.197-2.217c0-1.1.146-2.152.394-3.157-.316.067-.643.112-.971.155m-108.27-1.899c-.131.087-.279.154-.413.236v.571c.129-.274.258-.548.413-.807M43.77 50.39c0-1.487.34-2.864.926-4.097v-.568c-.331.203-.66.409-1.017.58a10.52 10.52 0 0 0-.81 4.085c0 .671.065 1.319.174 1.949.137-.005.27-.021.406-.021.171 0 .335.019.504.025-.12-.627-.183-1.28-.183-1.953m-107.72 0c0 2.304 1.646 3.977 3.913 3.977 1.721 0 3.071-1.234 3.071-2.81 0-1.336-.999-2.423-2.226-2.423-.563 0-1.079.236-1.417.648a1.56 1.56 0 0 0-.331 1.297l.883-.176a.65.65 0 0 1 .144-.549.917.917 0 0 1 .721-.32c.793 0 1.325.787 1.325 1.523 0 1.071-.953 1.91-2.17 1.91-1.774 0-3.013-1.266-3.013-3.077 0-1.856 1.663-3.365 3.708-3.365 2.49 0 4.516 2.033 4.516 4.532 0 2.949-2.126 5.09-5.071 5.159.25.275.489.559.716.855 3.091-.378 5.256-2.787 5.256-6.014 0-2.995-2.43-5.432-5.417-5.432-2.541 0-4.608 1.913-4.608 4.265m4.608-7.425c-4.472 0-7.844 3.192-7.844 7.425 0 .817.132 1.584.37 2.29.364.083.725.174 1.076.285a6.25 6.25 0 0 1-.546-2.575c0-3.72 2.985-6.525 6.944-6.525 3.847 0 6.78 2.396 7.527 5.902.196-.376.41-.74.642-1.091-1.11-3.43-4.205-5.711-8.169-5.711m0-3.147c-1.703 0-3.288.334-4.706.925-.254.499-.553.979-.875 1.445 1.588-.932 3.49-1.469 5.581-1.469 1.672 0 3.218.325 4.595.909a13.931 13.931 0 0 1-.708-1.224 12.999 12.999 0 0 0-3.887-.586m1.484 19.857c.137.271.272.545.391.827a9.343 9.343 0 0 0 4.415-2.801 12.698 12.698 0 0 1-.142-1.271 8.451 8.451 0 0 1-4.664 3.245m5.506.608a11.154 11.154 0 0 1-4.399 2.465c.067.292.123.587.172.887a12.036 12.036 0 0 0 4.61-2.482 13.02 13.02 0 0 1-.383-.87" fill="#1a9dbf" transform="translate(68.69 28.27)"/><path d="M0 0c0-6.334-5.294-11.686-11.561-11.686-4.576 0-7.799 2.09-9.599 4.959.243.157.473.329.702.504 1.601-2.619 4.513-4.572 8.897-4.572C-5.777-10.795-.891-5.851-.891 0c0 5.636-4.165 11.626-11.884 11.626-2.032 0-3.965-.528-5.677-1.444-.176.244-.36.483-.554.714a12.895 12.895 0 0 0 6.231 1.622C-4.477 12.518 0 6.068 0 0m-12.675-.473c-.072-.295-.024-.569.135-.772.191-.243.539-.376.979-.376.701 0 1.292.742 1.292 1.621 0 1.375-.984 2.264-2.506 2.264-1.49 0-2.899-1.493-2.899-3.071 0-2.589 2.066-3.75 4.113-3.75 2.41 0 4.371 2.044 4.371 4.557 0 3.024-2.402 5.306-5.585 5.306a6.08 6.08 0 0 1-3.362-.982c-.033.319-.089.638-.151.955a7.012 7.012 0 0 0 3.513.917c3.692 0 6.476-2.663 6.476-6.196 0-3.004-2.361-5.447-5.262-5.447-2.947 0-5.004 1.908-5.004 4.64 0 .221.025.439.064.653.031.123.059.249.087.375.469 1.629 1.991 2.933 3.639 2.933 2 0 3.398-1.297 3.398-3.154 0-1.385-.98-2.513-2.184-2.513-.72 0-1.316.255-1.679.717-.327.417-.437.976-.302 1.534l.867-.211zm1.114-7.251c4.132 0 7.495 3.465 7.495 7.724 0 4.832-3.745 8.476-8.709 8.476-1.38 0-2.81-.406-4.121-1.125-.109.278-.232.552-.362.825 1.377.75 2.906 1.191 4.483 1.191 5.473 0 9.599-4.027 9.599-9.367 0-4.75-3.761-8.615-8.385-8.615-3.132 0-5.797 1.618-7.159 4.049.213.255.41.525.598.8 1.143-2.357 3.617-3.958 6.561-3.958m-12.037 57.785c.162.253.313.511.452.777a12.026 12.026 0 0 0 4.875-3.581 13.465 13.465 0 0 1-.496-.792 11.163 11.163 0 0 1-4.831 3.596m-2.385-2.602c.29.223.569.457.833.709 2.269-.635 4.154-2.074 5.316-4.004-.14-.398-.26-.805-.361-1.219-1.062 2.291-3.18 3.981-5.788 4.514m-.853-22.411c-1.618 0-3.155.27-4.586.747-.198.41-.419.809-.662 1.194a13.489 13.489 0 0 1 5.248-1.05c3.745 0 7.62 1.559 10.262 4.537.218-.208.451-.401.682-.595-2.817-3.174-6.951-4.833-10.944-4.833m-12.281 7.208a13.294 13.294 0 0 0-1.537 6.238c0 3.264 1.148 6.073 2.922 8.261.253-.159.512-.306.781-.442a12.106 12.106 0 0 1-2.812-7.819c0-2.474.714-4.752 1.938-6.677-.42.171-.852.316-1.292.439m4.726 6.238c0 3.92 2.895 6.877 6.734 6.877 3.353 0 5.979-2.549 5.979-5.801 0-2.965-2.218-5.199-5.158-5.199-2.428 0-4.404 1.85-4.404 4.123 0 2.205 1.507 3.807 3.583 3.807 1.612 0 2.923-1.227 2.923-2.731 0-1.263-.919-2.215-2.137-2.215-.527 0-1.011.227-1.326.624a1.419 1.419 0 0 0-.294 1.205l.869-.202a.537.537 0 0 1 .122-.449.792.792 0 0 1 .629-.287c.619 0 1.246.455 1.246 1.324 0 1.014-.912 1.838-2.032 1.838-1.585 0-2.692-1.198-2.692-2.914 0-1.781 1.576-3.232 3.513-3.232 2.433 0 4.267 1.852 4.267 4.308 0 2.752-2.235 4.909-5.088 4.909-3.331 0-5.843-2.573-5.843-5.985 0-3.54 2.927-6.312 6.664-6.312 3.014 0 5.545 1.723 6.704 4.256.109-.402.237-.795.385-1.18-1.435-2.393-4.041-3.969-7.089-3.969-4.237 0-7.555 3.166-7.555 7.205m-3.151 0c0 2.502 1.054 5.09 2.874 7.013a10 10 0 0 1 1.123-.187c-1.948-1.799-3.106-4.39-3.106-6.826 0-5.305 4.311-9.459 9.815-9.459 3.486 0 6.419 1.459 8.294 3.849.17-.266.349-.525.538-.777-2.038-2.468-5.153-3.964-8.832-3.964-6.004 0-10.706 4.546-10.706 10.351m.146-64.559c-.049-2.999-1.078-5.612-2.807-7.573-.288.137-.585.261-.887.378 1.758 1.872 2.8 4.438 2.802 7.403.294-.077.59-.15.892-.208m-3.138.218c0-2.763-1.282-5.167-3.29-6.68-.456.073-.925.125-1.407.155 2.282 1.262 3.796 3.683 3.796 6.525 0 .432-.043.852-.106 1.264.314-.17.637-.325.967-.473.022-.26.04-.523.04-.791m-18.22-.237a12.78 12.78 0 0 1-.805.719c.735 4.382 4.458 8.565 9.74 8.565a9.97 9.97 0 0 0 1.927-.188c.111-.348.238-.687.375-1.02a8.852 8.852 0 0 1-2.302.308c-4.952 0-8.499-4.259-8.935-8.384m-2.839 2.077a13.02 13.02 0 0 1-.824.397c1.553 6.102 7.23 10.013 12.598 10.013.451 0 .889-.026 1.32-.068.019-.309.046-.614.084-.916-.456.053-.922.084-1.404.084-5.048 0-10.393-3.719-11.774-9.51m6.684-10.551c.141-.103.29-.197.437-.293-.149-.108-.287-.226-.431-.34.005.087.014.174.014.263 0 .125-.016.246-.02.37m7.241 8.711c0 1.025-.92 1.858-2.051 1.858-1.6 0-2.718-1.21-2.718-2.943 0-1.799 1.591-3.263 3.546-3.263 2.456 0 4.309 1.869 4.309 4.348 0 2.78-2.257 4.957-5.137 4.957-3.364 0-5.9-2.597-5.9-6.042 0-2.918 1.969-5.317 4.744-6.102a13.253 13.253 0 0 1-1.284-.487c-2.597 1.149-4.361 3.633-4.361 6.589 0 3.958 2.924 6.943 6.801 6.943 3.385 0 6.037-2.573 6.037-5.858 0-2.992-2.239-5.249-5.209-5.249-2.451 0-4.446 1.868-4.446 4.164 0 2.227 1.522 3.843 3.618 3.843 1.627 0 2.951-1.237 2.951-2.758 0-1.274-.928-2.236-2.159-2.236-.531 0-1.019.229-1.338.63a1.436 1.436 0 0 0-.296 1.217l.877-.203a.544.544 0 0 1 .123-.454.801.801 0 0 1 .634-.29c.626 0 1.259.459 1.259 1.336m12.438-.477c.298-.017.594-.041.898-.041-.109-3.674-1.351-6.666-3.248-8.94-.233.192-.466.385-.714.562 1.79 2.138 2.962 4.956 3.064 8.419m56.793 53.077c0-.232-.04-.447-.097-.654a11.524 11.524 0 0 1-.726-1.116 2.12 2.12 0 0 0-1.337-.466c-.531 0-1.019.229-1.337.629a1.437 1.437 0 0 0-.296 1.217l.876-.203a.547.547 0 0 1 .124-.453.798.798 0 0 1 .633-.29c.626 0 1.26.459 1.26 1.336 0 1.024-.92 1.857-2.052 1.857-1.6 0-2.717-1.21-2.717-2.942 0-1.8 1.59-3.264 3.546-3.264.092 0 .176.021.266.026a11.719 11.719 0 0 1-.211-.921c-.018 0-.035-.005-.055-.005-2.452 0-4.446 1.868-4.446 4.164 0 2.227 1.521 3.843 3.617 3.843 1.628 0 2.952-1.238 2.952-2.758m-8.503 1.02c-.085.489-.198.974-.337 1.457 1.154 2.052 3.307 3.38 5.888 3.38 2.627 0 4.806-1.552 5.654-3.781a11.53 11.53 0 0 1-.772-.581c-.646 2.022-2.548 3.462-4.882 3.462-2.632 0-4.751-1.595-5.551-3.937m1.639-64.553h-1.185c-1.991 2.174-4.875 3.666-8.455 3.666-3.029 0-6.161-1.346-8.486-3.666h-1.241c2.541 2.882 6.203 4.566 9.727 4.566 4.185 0 7.492-1.893 9.64-4.566m10.25 70.089V32.02c-1.526 1.768-3.821 2.879-6.437 2.879-2.793 0-5.131-1.36-6.724-3.28-.15.301-.311.598-.483.89 1.734 1.953 4.221 3.291 7.207 3.291 2.528 0 4.779-.946 6.437-2.491M13.484 14.363a13.06 13.06 0 0 1 1.646-.675 12.986 12.986 0 0 1-1.181-.542c-.023.01-.045.022-.068.031-.109.405-.246.799-.397 1.186m5.956.853c-3.238 0-6.092 1.318-8.057 3.431.16.274.312.551.454.836 1.803-2.069 4.516-3.367 7.603-3.367.127 0 .248.014.374.018.09-.301.196-.596.308-.887-.226-.012-.45-.031-.682-.031M5.059-35.417a9.531 9.531 0 0 0 4.95-1.363H7.873a8.803 8.803 0 0 1-2.814.463 8.324 8.324 0 0 1-2.744-.463H.15a9.386 9.386 0 0 0 4.909 1.363m13.453 74.42c2.471 0 4.634-.664 6.437-1.754V36.18c-1.762 1.185-3.928 1.922-6.437 1.922-3.05 0-6.204-1.365-8.534-3.715-.191.229-.388.454-.594.673 2.499 2.495 5.869 3.943 9.128 3.943m-78.398 30.105l-.009.01.012.009-.003-.019m-5.92-7.483c0-1.398-.989-2.537-2.205-2.537-.726 0-1.329.257-1.696.725-.33.419-.441.984-.305 1.548l.875-.213c-.072-.297-.024-.575.137-.78.193-.245.544-.38.989-.38.707 0 1.304.749 1.304 1.637 0 1.389-.993 2.286-2.531 2.286-1.504 0-2.926-1.507-2.926-3.1 0-2.524 1.942-3.691 3.935-3.77a12.373 12.373 0 0 1-.918-.811c-2.353.428-3.917 2.189-3.917 4.581 0 2.093 1.824 4 3.826 4 2.021 0 3.432-1.31 3.432-3.186m85.122-42.326c.006-.303.02-.605.049-.903-2.856.026-5.285 1.478-6.571 3.661.125.481.225.974.298 1.477.896-2.457 3.303-4.186 6.224-4.235m-8.177 35.887a15.109 15.109 0 0 0-5.152-.926c-3.015 0-5.772.892-8.03 2.417.016.244.039.486.039.734 0 .123-.016.243-.02.366 2.198-1.64 4.963-2.617 8.011-2.617 1.718 0 3.46.331 5.103.967.002-.317.022-.63.049-.941M7.873 76.605h2.136c2.619-1.582 4.335-4.398 4.335-7.683 0-4.688-3.671-8.361-8.357-8.361-4.277 0-7.629 3.197-7.629 7.276 0 3.958 2.924 6.942 6.801 6.942 3.385 0 6.037-2.573 6.037-5.857 0-2.992-2.239-5.249-5.209-5.249-2.451 0-4.446 1.868-4.446 4.164 0 2.227 1.522 3.843 3.618 3.843 1.627 0 2.951-1.238 2.951-2.758 0-1.274-.928-2.236-2.159-2.236-.532 0-1.019.229-1.338.629a1.437 1.437 0 0 0-.296 1.217l.877-.203a.543.543 0 0 1 .123-.453.798.798 0 0 1 .634-.29c.626 0 1.259.459 1.259 1.336 0 1.024-.92 1.857-2.051 1.857-1.6 0-2.718-1.21-2.718-2.942 0-1.8 1.591-3.264 3.546-3.264 2.456 0 4.309 1.869 4.309 4.349 0 2.779-2.257 4.957-5.137 4.957-3.364 0-5.9-2.598-5.9-6.042 0-3.575 2.955-6.375 6.728-6.375 4.182 0 7.456 3.276 7.456 7.46 0 3.603-2.295 6.582-5.57 7.683m-7.723 0h2.165c-3.78-1.312-6.237-5.205-6.237-8.768 0-5.357 4.352-9.552 9.909-9.552 2.098 0 3.992.532 5.587 1.464a12.61 12.61 0 0 1-.275-1.185c-1.563-.759-3.358-1.179-5.312-1.179-3.695 0-6.895 1.712-8.836 4.372a12.498 12.498 0 0 1-1.352 2.553 10.37 10.37 0 0 0-.622 3.527c0 3.364 1.878 6.893 4.973 8.768m16.133-10.349c.194.846.308 1.733.308 2.666 0 .346-.019.692-.053 1.04a11.26 11.26 0 0 1 .908-2.031 13.099 13.099 0 0 0-.126-1.066 11.395 11.395 0 0 1-1.037-.609m-24.245 1.628c.011 3.486 1.311 6.47 3.295 8.721h1.24c-2.17-2.165-3.637-5.177-3.637-8.768 0-.201.021-.398.03-.596-.3.227-.609.442-.928.643m21.476 8.721h1.185c.477-.592.898-1.222 1.257-1.88a11.558 11.558 0 0 1-.045-.916c0-.48.034-.948.086-1.409a11.81 11.81 0 0 1-2.483 4.205m-100.65-46.658a7.946 7.946 0 0 1-1.3 2.072v1.29a8.87 8.87 0 0 0 2.139-3.028 12.005 12.005 0 0 1-.839-.334m26.693 31.678c0 2.388-.91 4.483-2.421 6.005.31.105.616.22.915.349 1.506-1.656 2.406-3.86 2.406-6.354 0-.674-.082-1.327-.224-1.958-.296.022-.589.054-.892.054l-.023-.001c.15.611.239 1.247.239 1.905m-17.431 2.388c-.173.316-.355.629-.552.934a11.17 11.17 0 0 0 4.201 4.664c.253-.208.513-.406.784-.591-1.932-1.073-3.578-2.836-4.433-5.007M-88.436 36.18v1.068c2.462-1.488 4.249-3.775 5.201-6.292a12.361 12.361 0 0 1-.91-.12 11.649 11.649 0 0 1-4.291 5.344m25.739 25.445a5.62 5.62 0 0 0-.428-2.158c-.398-.084-.79-.187-1.173-.309.438.715.7 1.558.7 2.467 0 3.055-2.424 5.358-5.639 5.358-3.469 0-6.084-2.653-6.084-6.172 0-2.984 1.867-5.47 4.57-6.487a12.377 12.377 0 0 1-.489-.784c-2.954 1.183-4.981 3.957-4.981 7.271 0 3.458 2.212 6.18 5.352 6.887a11.915 11.915 0 0 1 4.066-.726c.326 0 .647.022.967.047 1.907-1.069 3.139-3.037 3.139-5.394m-13.706 10.468c-.094-.061-.182-.128-.274-.192a9.929 9.929 0 0 0-.542-1.541c.421.358.862.694 1.325.995a9.745 9.745 0 0 0-.509.738" fill="#129477" transform="translate(88.436 36.78)"/><path d="M0 0c0 1.119-1.043 1.535-1.7 1.535-1.196 0-2.285-1.164-2.285-2.445 0-1.723 1.301-2.926 3.165-2.926 1.834 0 3.69 1.318 3.69 3.836 0 2.537-2.05 4.602-4.57 4.602-2.975 0-5.305-2.421-5.305-5.512 0-3.673 3.145-5.868 6.185-5.868 3.94 0 6.799 2.85 6.799 6.778 0 4.246-3.445 7.7-7.679 7.7-4.124 0-8.39-3.221-8.39-8.61 0-3.672 2.244-6.75 5.523-8.096a15.28 15.28 0 0 1-1.705-.138c-2.847 1.705-4.709 4.72-4.709 8.234 0 5.947 4.719 9.501 9.281 9.501 4.725 0 8.57-3.854 8.57-8.591 0-4.372-3.306-7.67-7.69-7.67-3.478 0-7.077 2.529-7.077 6.76 0 3.531 2.78 6.402 6.197 6.402 3.011 0 5.461-2.464 5.461-5.492 0-2.695-1.97-4.727-4.581-4.727-2.35 0-4.056 1.606-4.056 3.817 0 1.778 1.484 3.338 3.176 3.338C-.444 2.428.891 1.576.891 0c0-1.088-.693-1.748-1.38-1.919-.697-.173-1.368.132-1.712.778l.787.418a.603.603 0 0 1 .709-.332C-.355-.967 0-.606 0 0m9.986 0c0-4.955-3.471-9.117-8.143-10.288a13.09 13.09 0 0 1-1.546.622C5.168-9.102 9.095-4.907 9.095 0c0 6.059-4.741 10.807-10.795 10.807-6.303 0-11.431-5.257-11.431-11.717 0-3.629 1.552-6.766 4.077-8.893a13.21 13.21 0 0 1-.935-.377c-2.507 2.28-4.033 5.533-4.033 9.27 0 6.951 5.528 12.607 12.322 12.607C4.853 11.697 9.986 6.56 9.986 0M8.653-38.211c0-6.756-5.058-11.851-11.766-11.851-6.059 0-11.179 4.853-11.179 10.597 0 5.157 3.855 10.49 10.307 10.49 5.205 0 9.439-4.177 9.439-9.312 0-4.907-3.683-8.608-8.567-8.608-4.219 0-7.782 3.403-7.782 7.43 0 4.041 3.026 7.207 6.89 7.207 3.428 0 6.216-2.705 6.216-6.029 0-3.144-2.288-5.514-5.324-5.514-2.481 0-4.576 1.986-4.576 4.336 0 2.27 1.575 3.979 3.663 3.979 1.731 0 3.138-1.257 3.138-2.801 0-1.433-.999-2.598-2.225-2.598-.684 0-1.26.328-1.54.879-.273.537-.208 1.193.17 1.71l.72-.524c-.181-.25-.217-.541-.095-.782.126-.248.398-.391.745-.391.735 0 1.334.764 1.334 1.706 0 1.053-1.009 1.909-2.247 1.909-1.581 0-2.772-1.327-2.772-3.087 0-1.867 1.688-3.445 3.685-3.445 2.527 0 4.433 1.987 4.433 4.623 0 2.834-2.389 5.139-5.325 5.139-3.364 0-5.999-2.775-5.999-6.317 0-3.544 3.156-6.537 6.891-6.537 4.375 0 7.676 3.316 7.676 7.715 0 4.643-3.835 8.422-8.548 8.422-5.894 0-9.416-4.881-9.416-9.6 0-5.261 4.711-9.705 10.288-9.705 6.2 0 10.875 4.711 10.875 10.959 0 5.517-4.482 11.473-11.721 11.473-7.98 0-12.75-6.471-12.75-12.727 0-7.115 6.1-12.902 13.596-12.902.934 0 1.827.089 2.682.248.136-.283.284-.559.444-.822a15.393 15.393 0 0 0-3.126-.319c-7.988 0-14.486 6.19-14.486 13.795 0 6.694 5.101 13.617 13.64 13.617 7.79 0 12.612-6.418 12.612-12.363m28.386-45.244c0-.471-.065-.917-.162-1.349h-.936c.117.427.198.872.198 1.349 0 2.861-2.413 5.188-5.377 5.188-3.397 0-6.057-2.8-6.057-6.377 0-.053.007-.106.008-.16h-.899c-.001.054-.01.107-.01.16 0 4.081 3.056 7.278 6.958 7.278 3.461 0 6.277-2.732 6.277-6.089m-6.108-1.349h-.954c-.093.45.008.937.302 1.341l.728-.529c-.184-.253-.22-.548-.097-.79.004-.009.016-.013.021-.022m-2.971 0h-.901c-.002.054-.018.106-.018.16 0 2.29 1.591 4.018 3.7 4.018 1.747 0 3.168-1.27 3.168-2.829a2.94 2.94 0 0 0-.329-1.349h-1.1c.317.319.529.807.529 1.349 0 1.063-1.017 1.929-2.268 1.929-1.596 0-2.799-1.34-2.799-3.118 0-.054.015-.106.018-.16m4.919 100.5c-.029.024-.062.043-.091.067.043.003.089.002.133.005-.015-.023-.028-.048-.042-.072m45.344-72.494c0-4.008-2.25-7.504-5.569-9.347-.336.187-.679.364-1.037.521 3.339 1.614 5.706 5.003 5.706 8.826 0 6.118-4.788 10.911-10.9 10.911-2.863 0-5.481-1.081-7.5-2.856.015.238.037.475.037.718 0 .152-.011.304-.017.457 2.085 1.613 4.671 2.582 7.48 2.582 6.617 0 11.8-5.189 11.8-11.812m.735 49.185c.046-.459.114-.91.203-1.353-.036-.053-.076-.104-.112-.157-.34.041-.691.058-1.044.073.347.462.664.942.953 1.437m-20.079-58.98a13.12 13.12 0 0 1-.782-.522c-2.557 2.303-4.116 5.603-4.116 9.398 0 .058.008.112.009.169.325.234.637.484.937.75a12.133 12.133 0 0 1-.045-.919c0-3.606 1.519-6.73 3.997-8.876M26.173 19.959c0 .18-.018.36-.026.54a10.625 10.625 0 0 1 5.516-1.558c2.468 0 4.691.748 6.485 2.032.058-.141.129-.274.194-.41a12.55 12.55 0 0 1-3.04-1.988 12.449 12.449 0 0 0-3.639-.534 11.49 11.49 0 0 0-5.515 1.421c.007.166.025.329.025.497M68.14-56.798c0 1.13-1.053 1.551-1.717 1.551-1.207 0-2.307-1.177-2.307-2.47 0-1.739 1.314-2.954 3.195-2.954 1.852 0 3.726 1.33 3.726 3.873 0 2.562-2.07 4.646-4.614 4.646-3.004 0-5.357-2.445-5.357-5.565 0-3.709 3.176-5.925 6.245-5.925 3.978 0 6.865 2.878 6.865 6.844 0 4.287-3.478 7.775-7.753 7.775-4.164 0-8.471-3.252-8.471-8.694 0-3.142 1.628-5.855 4.141-7.437a13.752 13.752 0 0 1-1.06-.362c-2.432 1.779-3.981 4.58-3.981 7.799 0 6.005 4.765 9.594 9.371 9.594 4.772 0 8.654-3.892 8.654-8.675 0-4.415-3.339-7.744-7.766-7.744-3.512 0-7.145 2.553-7.145 6.825 0 3.565 2.807 6.465 6.257 6.465 3.041 0 5.515-2.488 5.515-5.546 0-2.722-1.989-4.773-4.627-4.773-2.373 0-4.095 1.621-4.095 3.854 0 1.795 1.499 3.37 3.207 3.37 1.269 0 2.617-.859 2.617-2.451 0-1.099-.701-1.765-1.395-1.937-.701-.173-1.381.132-1.728.786l.795.422a.605.605 0 0 1 .716-.335c.354.089.712.452.712 1.064m1.969 63.746c-.075.042-.145.095-.222.135.071.024.14.057.211.083.006-.072.004-.147.011-.218m4.365-8.179c.264-.222.54-.43.822-.63-.637-4.23-4.088-7.272-8.535-7.272a7.941 7.941 0 0 0-3.345.75c.036.316.054.637.06.961a7.071 7.071 0 0 1 3.285-.81c4.153 0 7.344 2.959 7.713 7.001m2.948-1.851c.275-.124.557-.236.842-.342-.58-2.363-1.811-4.409-3.524-5.938a13.512 13.512 0 0 1-5.406-2.704 12.565 12.565 0 0 0-1.679-.217c-.328.301-.675.588-1.035.86.047 0 .093-.007.141-.007 5.321 0 9.519 3.443 10.661 8.348M59.611 1.602c1.12 2.414 3.466 4.044 6.249 4.044 3.462 0 6.278-2.731 6.278-6.088 0-3.174-2.312-5.568-5.377-5.568a4.717 4.717 0 0 0-3.659 1.768 11.839 11.839 0 0 1-.953 2.531c-.001.027-.009.053-.009.08 0 2.29 1.591 4.018 3.7 4.018 1.746 0 3.168-1.27 3.168-2.829 0-1.447-1.008-2.623-2.247-2.623-.691 0-1.272.332-1.555.887-.275.542-.209 1.204.172 1.728l.727-.53c-.184-.252-.22-.547-.097-.79.128-.252.403-.395.753-.395.73 0 1.346.789 1.346 1.723 0 1.063-1.017 1.928-2.267 1.928-1.596 0-2.8-1.34-2.8-3.117 0-1.886 1.704-3.478 3.721-3.478 2.552 0 4.476 2.005 4.476 4.667 0 2.861-2.412 5.188-5.377 5.188-2.529 0-4.648-1.554-5.566-3.824-.219.235-.446.462-.683.68M32.48 28.58h1.1c-.394-.76-1.103-1.274-1.917-1.274-.691 0-1.273.332-1.556.887a1.575 1.575 0 0 0-.13.387h.954c.134-.235.394-.374.732-.374.306 0 .588.145.817.374m3.461 0h.936c-.555-2.476-2.605-4.219-5.214-4.219-2.448 0-4.51 1.918-4.604 4.219h.901c.095-1.813 1.744-3.318 3.703-3.318 2.094 0 3.747 1.362 4.278 3.318m-11.942-1.447a7.025 7.025 0 0 0-.185 1.447h.899c.095-3.507 3.234-6.441 6.95-6.441 2.25 0 4.215.872 5.605 2.311.041-.371.09-.738.16-1.096-1.509-1.326-3.507-2.116-5.765-2.116-2.521 0-4.803 1.208-6.252 3.033a13.36 13.36 0 0 1-1.412 2.862m8.997-99.126c.299.193.583.405.865.619.116-.305.238-.608.378-.901-.401.116-.818.206-1.243.282m6.69-8.14a12.455 12.455 0 0 1-.632-.913c-1.058 3.518-4.364 6.093-8.272 6.093-2.731 0-4.95-1.045-6.561-2.629.108.461.192.939.258 1.429 1.662 1.289 3.784 2.1 6.303 2.1a9.533 9.533 0 0 0 8.904-6.08m17.11 83.657c.752 1.401 1.801 2.654 3.138 3.598.358-.131.723-.252 1.096-.354-1.498-.894-2.665-2.186-3.457-3.666-.254.149-.512.291-.777.422m.121 5.138a10.848 10.848 0 0 0-.141-1.191c.259.263.52.526.804.768-.226.135-.445.278-.663.423" fill="#75be43" transform="translate(29.477 84.804)"/><path d="M0 0c1.056 0 2.015.203 2.881.545a13.16 13.16 0 0 1-.629-1.141A8.854 8.854 0 0 0 0-.891c-3.463 0-7.024 2.283-7.635 6.159.284.128.565.261.835.411C-6.389 2.108-3.145 0 0 0m5.5 7.566c0-2.697-1.89-5.425-5.5-5.425-2.431 0-4.565 2.011-4.565 4.306 0 .332.033.647.094.944a11.35 11.35 0 0 1 2.148 2.806c.504.244 1.05.375 1.591.375 1.776 0 3.22-1.347 3.22-3.006 0-1.505-1.023-2.558-2.488-2.558-.705 0-1.333.406-1.639 1.059-.276.591-.216 1.234.155 1.679l.685-.572c-.145-.173-.158-.459-.032-.729.123-.263.407-.547.831-.547.971 0 1.598.657 1.598 1.668 0 1.166-1.045 2.116-2.33 2.116-1.445 0-2.941-1.211-2.941-3.235 0-1.82 1.716-3.416 3.673-3.416 3.025 0 4.608 2.282 4.608 4.535 0 2.878-2.346 5.133-5.34 5.133-.204 0-.405-.011-.603-.031.082.297.159.596.22.902.127.007.253.02.383.02 3.495 0 6.232-2.646 6.232-6.024m6.301 0c0-.32-.023-.635-.05-.951-.311-.058-.612-.138-.914-.218.045.384.072.775.072 1.169 0 6.194-5.33 11.426-11.641 11.426-.183 0-.353-.019-.533-.027-.075.296-.162.588-.259.879.263.013.52.039.792.039 6.794 0 12.533-5.64 12.533-12.317M0-2.918c.476 0 .942.039 1.402.098a13.813 13.813 0 0 1-.237-.932A12.782 12.782 0 0 0 0-3.809c-4.766 0-9.669 3.018-10.724 8.172.296.046.589.099.876.164C-8.872-.169-4.373-2.918 0-2.918M8.609 7.625a8.19 8.19 0 0 0-.304-2.168 13.274 13.274 0 0 1-1.153-.637c.369.907.566 1.866.566 2.805 0 4.596-3.712 8.195-8.45 8.195-.054 0-.103-.006-.156-.006.002.081.012.161.012.243 0 .214-.02.429-.033.646.06 0 .117.009.177.009 5.238 0 9.341-3.991 9.341-9.087m-40.606 5.705c-2.568 0-4.987.799-7.008 2.151v1.113c1.973-1.471 4.404-2.364 7.008-2.364 1.819 0 3.441.333 4.882.897-.003-.108-.013-.216-.013-.323 0-.216.024-.426.034-.64a14.375 14.375 0 0 0-4.903-.834m-7.008 21.128v1.057a12.159 12.159 0 0 0 6.269 1.737 11.9 11.9 0 0 0 5.981-1.631c-.088-.304-.165-.61-.233-.919a10.966 10.966 0 0 1-5.748 1.65c-2.329 0-4.488-.704-6.269-1.894m11.874 44.167c.113.543.177 1.105.201 1.682 1.485-3.928 5.571-6.191 9.557-6.191 2.729 0 5.224.964 7.15 2.55a15.34 15.34 0 0 1-.229-1.296 12.148 12.148 0 0 0-6.921-2.154c-3.854 0-7.791 1.959-9.758 5.409m-11.874-59.104v1.417c1.528-2.133 4.07-3.507 7.008-3.507 2.26 0 4.121.641 5.579 1.68a13.958 13.958 0 0 1-.353-1.256c-1.449-.827-3.193-1.325-5.226-1.325-2.813 0-5.294 1.149-7.008 2.991m0 10.721v1.404c1.498 1.583 3.635 2.66 6.269 2.66 1.953 0 3.938-.721 5.42-2.036a14.178 14.178 0 0 1-.025-.771c0-.174.015-.344.021-.516-1.339 1.555-3.395 2.422-5.416 2.422-2.773 0-4.933-1.33-6.269-3.163m113.38-13.647v-1.113c-3.377 2.26-5.644 6.068-5.644 10.285 0 4.114 2.263 7.719 5.644 9.748v-1.057c-2.862-1.914-4.744-5.094-4.744-8.691 0-3.698 1.89-7.045 4.744-9.172m0 4.343v-1.417a9.01 9.01 0 0 0-2.423 6.185c0 2.107.867 4.297 2.423 5.94v-1.403c-.983-1.348-1.523-2.968-1.523-4.537 0-1.791.562-3.428 1.523-4.768M-5.463-28.684c0-.088-.012-.174-.014-.263-.33-.262-.646-.536-.945-.826.039.358.059.721.059 1.089 0 6.253-5.383 11.536-11.754 11.536-6.155 0-10.188-3.652-11.831-8.061-.225.23-.452.456-.698.664 1.838 4.569 6.097 8.297 12.529 8.297 6.859 0 12.654-5.695 12.654-12.436m-3.222.06c0-.636-.088-1.278-.24-1.912h-.925c.17.632.264 1.275.264 1.912 0 4.641-3.747 8.275-8.531 8.275-5.894 0-9.098-4.337-9.38-8.821-.188.549-.414 1.08-.683 1.584.9 4.257 4.357 8.138 10.063 8.138 5.289 0 9.432-4.031 9.432-9.176m-15.565-1.912h-.901a8.065 8.065 0 0 0-.039.722c0 4.044 3.107 7.212 7.073 7.212 3.529 0 6.292-2.671 6.292-6.082 0-.628-.106-1.255-.306-1.852h-.976c.245.588.382 1.219.382 1.852 0 2.906-2.368 5.182-5.392 5.182-3.461 0-6.172-2.772-6.172-6.312 0-.248.014-.488.039-.722m3.163.722c0-.247.036-.488.094-.722h-.912a3.776 3.776 0 0 0-.082.722c0 2.607 1.968 4.165 3.87 4.165 1.793 0 3.252-1.362 3.252-3.035 0-.755-.256-1.397-.695-1.852h-3.252a1.869 1.869 0 0 0-.22.34c-.279.595-.219 1.244.156 1.693l.69-.576c-.146-.176-.158-.465-.031-.736.125-.267.41-.551.839-.551.979 0 1.612.66 1.612 1.682 0 1.177-1.054 2.134-2.351 2.134-1.46 0-2.97-1.22-2.97-3.264M41.06 63.655c0-2.722-1.908-5.479-5.553-5.479-2.456 0-4.61 2.032-4.61 4.348 0 2.608 1.969 4.165 3.871 4.165 1.793 0 3.251-1.361 3.251-3.034 0-1.52-1.033-2.583-2.512-2.583-.712 0-1.346.41-1.655 1.071-.278.595-.218 1.244.157 1.693l.69-.576c-.146-.176-.159-.465-.032-.737a.932.932 0 0 1 .84-.55c.979 0 1.612.66 1.612 1.682 0 1.177-1.055 2.134-2.351 2.134-1.46 0-2.97-1.221-2.97-3.265 0-1.836 1.733-3.448 3.709-3.448 3.054 0 4.653 2.304 4.653 4.579 0 2.906-2.369 5.182-5.392 5.182-3.461 0-6.172-2.773-6.172-6.313 0-3.353 2.381-5.592 5.118-6.281a12.377 12.377 0 0 1-.803-.7c-2.846.939-5.216 3.401-5.216 6.981 0 4.045 3.107 7.213 7.073 7.213 3.528 0 6.292-2.672 6.292-6.082M-18.812 82.85h3.252c-.443-.461-1.074-.731-1.818-.731a1.79 1.79 0 0 0-1.434.731m-6.339 0h.901c.388-3.638 3.68-5.787 6.872-5.787 3.986 0 6.708 2.742 7.528 5.787h.925c-.84-3.49-3.91-6.688-8.453-6.688-3.635 0-7.383 2.487-7.773 6.688m12.044 0h.976c-.67-1.994-2.442-3.627-5.247-3.627-2.196 0-4.138 1.627-4.527 3.627h.912c.38-1.517 1.904-2.727 3.615-2.727 2.204 0 3.636 1.204 4.271 2.727m43.451-28.472c.355-.191.721-.36 1.096-.51-.092-.125-.197-.24-.285-.368-.251.307-.529.594-.811.878m-3.715 3.476a8.943 8.943 0 0 1 1.102-1.467c-.461.259-.944.494-1.45.695.13.25.238.511.348.772M44.2 63.715c0-1.604-.505-3.253-1.43-4.676-.347.03-.698.049-1.055.051 1.024 1.365 1.584 3.022 1.584 4.625 0 4.64-3.747 8.275-8.531 8.275-4.38 0-7.271-2.398-8.587-5.469-.163.311-.342.613-.535.907 1.564 3.078 4.652 5.463 9.122 5.463 5.289 0 9.432-4.031 9.432-9.176m-69.595-39.42c-1.004-2.721-3.546-4.611-6.607-4.611-3.528 0-6.292 2.671-6.292 6.082 0 2.722 1.908 5.479 5.553 5.479 2.456 0 4.61-2.032 4.61-4.349 0-2.607-1.968-4.165-3.871-4.165-1.793 0-3.251 1.362-3.251 3.035 0 1.52 1.033 2.583 2.512 2.583.712 0 1.346-.411 1.654-1.07.279-.595.22-1.245-.155-1.694l-.691.576c.146.176.159.465.032.736a.931.931 0 0 1-.84.551c-.979 0-1.612-.66-1.612-1.682 0-1.177 1.055-2.134 2.351-2.134 1.46 0 2.97 1.221 2.97 3.264 0 1.837-1.733 3.449-3.709 3.449-3.054 0-4.652-2.304-4.652-4.579 0-2.906 2.368-5.182 5.391-5.182 2.97 0 5.382 2.043 6.008 4.858.183-.392.383-.774.599-1.147m60.163 51.796c-5.373 0-9.228-2.604-11.427-6.122.239-.192.465-.396.686-.605 2.04 3.342 5.667 5.826 10.741 5.826 6.371 0 11.753-5.282 11.753-11.535a10.2 10.2 0 0 0-1.34-5.056c.294-.083.58-.184.864-.287a11.085 11.085 0 0 1 1.377 5.343c0 6.741-5.795 12.436-12.654 12.436" fill="#cadb2b" transform="translate(39.005 30.536)"/><path d="M0 0c0-5.576-4.681-10.111-10.435-10.111-5.349 0-9.538 4.039-9.538 9.197 0 5.098 3.891 9.092 8.859 9.092 4.47 0 8.247-3.745 8.247-8.178 0-4.146-3.324-7.394-7.568-7.394-3.787 0-6.753 2.846-6.753 6.48 0 3.635 2.554 6.271 6.074 6.271 3.063 0 5.463-2.353 5.463-5.357 0-2.734-1.968-4.645-4.784-4.645-2.171 0-3.938 1.674-3.938 3.731 0 1.988 1.371 3.434 3.259 3.434 1.443 0 2.71-1.178 2.71-2.52 0-1.166-.83-2.079-1.89-2.079-.441 0-.857.191-1.14.524a1.294 1.294 0 0 0-.304 1.047l.879-.146a.412.412 0 0 1 .105-.325.611.611 0 0 1 .46-.209c.569 0 .999.51.999 1.188 0 .852-.868 1.627-1.819 1.627-1.394 0-2.368-1.045-2.368-2.541 0-1.565 1.367-2.838 3.047-2.838 2.292 0 3.893 1.542 3.893 3.752 0 2.504-2.009 4.466-4.572 4.466-3.003 0-5.183-2.263-5.183-5.38 0-3.134 2.575-5.588 5.862-5.588 3.744 0 6.678 2.856 6.678 6.502 0 3.949-3.37 7.285-7.357 7.285-4.468 0-7.968-3.601-7.968-8.199 0-4.657 3.798-8.306 8.647-8.306C-5.172-9.22-.891-5.084-.891 0c0 5.381-4.681 9.926-10.223 9.926-5.795 0-10.216-4.27-10.59-10.05-.292.035-.587.065-.886.087.414 6.244 5.202 10.854 11.476 10.854C-4.985 10.817 0 5.965 0 0m-8.258-34.486c0-7.172-6.315-11.008-10.924-11.055-.322.327-.656.641-1.011.932.304-.028.612-.045.924-.045 4.244 0 10.121 3.533 10.121 10.168 0 5.924-5.093 10.929-11.122 10.929-3.316 0-5.936-1.136-7.833-2.904a12.64 12.64 0 0 1-.234.905c2.137 1.818 4.929 2.892 8.067 2.892 6.512 0 12.012-5.414 12.012-11.822m-11.011-7.982c-3.997 0-7.25 3.243-7.25 7.228 0 3.592 2.745 6.404 6.249 6.404 3.251 0 5.798-2.482 5.798-5.65 0-3.012-2.489-4.875-4.797-4.875-2.396 0-4.202 1.771-4.202 4.121 0 1.851 1.437 3.357 3.201 3.357 1.581 0 2.728-1.096 2.728-2.603 0-1.151-.907-2.01-1.717-2.01-.527 0-.972.185-1.254.521-.25.299-.346.696-.271 1.117l.878-.158c-.029-.161-.003-.291.076-.385.108-.13.317-.204.571-.204.332 0 .824.47.824 1.119 0 .851-.567 1.713-1.835 1.713-1.294 0-2.309-1.084-2.309-2.467 0-1.871 1.392-3.231 3.31-3.231 1.879 0 3.905 1.524 3.905 3.985 0 2.669-2.154 4.759-4.906 4.759-3.353 0-5.356-2.802-5.356-5.513 0-3.914 3.3-6.336 6.357-6.336 3.38 0 7.018 2.219 7.018 7.09 0 4.257-3.673 7.853-8.019 7.853-3.569 0-6.482-2.047-7.745-5.113.148.725.223 1.476.236 2.246 1.667 2.308 4.353 3.758 7.509 3.758 4.83 0 8.909-4.004 8.909-8.744 0-5.241-3.978-7.982-7.908-7.982m-9.422 7.228c0-2.648 1.042-5.007 2.747-6.701-.438.08-.884.132-1.335.165a10.287 10.287 0 0 0-2.285 6.147c.409.662.754 1.367 1.029 2.109a9.551 9.551 0 0 1-.156-1.72M4.712-92.151h-.956c1.139 3.633 4.536 6.352 8.425 6.352 3.664 0 6.115-1.928 7.278-4.43a13.564 13.564 0 0 1-.719-.578c-.957 2.277-3.088 4.108-6.559 4.108-3.396 0-6.368-2.318-7.469-5.452m7.469.11c.233 0 .45-.045.655-.11h-1.395c.234.064.477.11.74.11m4.605-.11h-.973c-.597 1.276-1.869 2.311-3.632 2.311-1.743 0-3.23-.917-4.072-2.311H7.075c.926 1.919 2.84 3.212 5.106 3.212 2.327 0 3.96-1.477 4.605-3.212m-83.198 4.363v.93c.609.15 1.238.238 1.886.238 3.466 0 6.304-2.306 7.18-5.531h-.936c-.844 2.715-3.285 4.631-6.244 4.631-.65 0-1.281-.099-1.886-.268m11.889-4.363h-.926c-.933 4.299-4.645 7.525-9.077 7.525a9.356 9.356 0 0 1-1.886-.197v.919c.614.11 1.242.178 1.886.178 4.929 0 9.053-3.624 10.003-8.425m-11.889 1.399v.982a5.45 5.45 0 0 0 1.886.338c2.004 0 3.559-1.056 4.267-2.719h-1.015c-.637 1.122-1.796 1.819-3.252 1.819-.68 0-1.314-.156-1.886-.42m15.313 25.491c-.257.257-.533.497-.811.737 2.516.468 4.868 2.192 5.487 5.344.276-.13.55-.26.836-.374-.694-3.075-2.937-5.005-5.512-5.707m7.62 5.062c.293-.069.586-.13.885-.181-.95-3.616-3.636-6.091-6.51-7.34-.167.254-.343.501-.525.746 2.695 1.116 5.245 3.402 6.15 6.775M1.48-92.151H.552c1.225 5.353 6.049 9.487 11.629 9.487 2.838 0 5.151-.986 6.928-2.459l-.002-.045c0-.407.034-.815.083-1.225-1.7 1.666-4.047 2.829-7.009 2.829-5.09 0-9.496-3.728-10.701-8.587m31.647 54.96a12.048 12.048 0 0 0 2.795-5.056 13.278 13.278 0 0 1-.808-.454 11.082 11.082 0 0 1-2.515 4.762c.183.245.362.491.528.748m8.941-54.96h-.957c.953 2.597 3.172 4.63 5.863 5.292v-.93c-2.201-.613-4.028-2.255-4.906-4.362m-2.833 0h-.942c1.061 4.223 4.452 7.485 8.681 8.246v-.919c-3.674-.754-6.694-3.655-7.739-7.327m6.034 0h-1.09a5.333 5.333 0 0 0 2.795 2.381v-.982a4.419 4.419 0 0 1-1.705-1.399M22.006-54.868l.041-.016-.039-.033-.002.049m6.998 3.579c-.084-.356-.16-.714-.217-1.079l.081.004a12.152 12.152 0 0 1-3.842-.828 7.304 7.304 0 0 0-3.398.924 12.93 12.93 0 0 1-.422 1.373c1.163-.907 2.6-1.406 3.99-1.406 1.305 0 2.647.331 3.808 1.012m2.117 11.683c1.085-1.299 1.814-2.889 2.006-4.614a13.218 13.218 0 0 1-.851-.856c-.016 1.822-.701 3.518-1.816 4.867.229.19.445.398.661.603m-2.451-1.835a5.621 5.621 0 0 0 1.369-3.702c0-3.041-2.514-4.923-4.843-4.923-2.419 0-4.243 1.79-4.243 4.163 0 1.08.493 2.033 1.246 2.654 1.123.027 2.206.188 3.238.466.91-.415 1.501-1.278 1.501-2.36 0-1.162-.915-2.03-1.732-2.03-.532 0-.982.188-1.267.528-.252.301-.349.701-.273 1.126l.886-.158c-.029-.163-.003-.294.077-.39.11-.13.32-.205.577-.205.335 0 .832.474.832 1.129 0 .862-.573 1.73-1.853 1.73-1.308 0-2.331-1.094-2.331-2.49 0-1.891 1.405-3.263 3.342-3.263 1.896 0 3.943 1.538 3.943 4.023a4.701 4.701 0 0 1-1.303 3.257c.284.14.562.286.834.445m-86.952 62.675h.936a8.064 8.064 0 0 0 .284-2.111c0-3.824-2.873-6.819-6.541-6.819a6.878 6.878 0 0 0-2.809.58v1.029a5.793 5.793 0 0 1 2.809-.709c3.164 0 5.641 2.6 5.641 5.919a7.09 7.09 0 0 1-.32 2.111m-2.992 0h1.015a5.367 5.367 0 0 0 .422-2.111c0-2.192-1.689-3.977-3.766-3.977-1.2 0-2.195.502-2.809 1.306v3.764c.474.576 1.152.958 1.886.958 1.177 0 2.099-.839 2.099-1.909 0-.446-.193-.865-.53-1.151a1.304 1.304 0 0 0-1.056-.307l.147.888a.434.434 0 0 1 .327.106.612.612 0 0 1 .212.464c0 .575-.516 1.008-1.199 1.008-.861 0-1.644-.875-1.644-1.836 0-1.407 1.056-2.39 2.567-2.39 1.581 0 2.866 1.38 2.866 3.076 0 .804-.199 1.515-.537 2.111m-2.329-11.742a9.68 9.68 0 0 0-2.809.413v.955a8.714 8.714 0 0 1 2.809-.467c4.703 0 8.386 3.835 8.386 8.73a9.91 9.91 0 0 1-.232 2.111h.926c.135-.682.207-1.388.207-2.111 0-5.4-4.08-9.631-9.287-9.631m70.078 9.1c0 .958.218 1.851.6 2.642h1.034a5.083 5.083 0 0 1-.734-2.642c0-1.923.914-3.404 2.204-4.327-.504.091-1.017.147-1.538.175a6.21 6.21 0 0 0-1.566 4.152m9.338 2.642h.973c.061-.165.126-.33.169-.499a13.207 13.207 0 0 1-.759-1.049 3.906 3.906 0 0 1-.383 1.548m-2.872-8.051c.405 0 .79.043 1.162.109-.015-.259-.038-.515-.041-.779-.392.247-.798.47-1.216.674.032 0 .064-.004.095-.004m-1.5 8.051h1.395c.816-.26 1.375-.967 1.375-1.621 0-.532-.188-.982-.527-1.266-.302-.253-.702-.35-1.127-.274l.158.886c.163-.029.294-.003.39.077.13.11.206.319.206.577 0 .335-.475.831-1.13.831-.862 0-1.73-.572-1.73-1.852 0-1.308 1.094-2.331 2.49-2.331.696 0 1.32.193 1.833.53-.128-.374-.234-.76-.329-1.152a4.28 4.28 0 0 0-1.504-.279c-1.869 0-3.39 1.45-3.39 3.232 0 1.321.764 2.33 1.89 2.642m26.495-2.797c0 .967.132 1.902.357 2.797h.942a10.219 10.219 0 0 1-.399-2.797c0-2.399.732-4.561 1.99-6.31a12.11 12.11 0 0 1-.873-.348c-1.281 1.863-2.017 4.142-2.017 6.658m9.038-4.524v-1.03c-2.142.95-3.525 2.997-3.525 5.554 0 1.03.268 1.981.73 2.797h1.09a4.674 4.674 0 0 1-.919-2.797c0-2.015 1.022-3.645 2.624-4.524m0 6.305v-3.767a3.232 3.232 0 0 0-.66 1.986c0 .669.258 1.293.66 1.781m0-9.357v-.955c-3.733 1.131-6.372 4.475-6.372 8.531 0 .977.186 1.918.509 2.797h.957a7.255 7.255 0 0 1-.566-2.797c0-3.546 2.253-6.48 5.472-7.576m-31.27-52.507c.263-.148.531-.286.805-.415a8.97 8.97 0 0 1-.716-2.437 12.04 12.04 0 0 1-.848.433c.151.858.411 1.667.759 2.419m2.905-1.187c.306-.082.616-.151.93-.21a5.843 5.843 0 0 1-.763-2.86c0-.38.039-.742.098-1.093-.31.351-.64.687-.994 1.005-.001.029-.005.058-.005.088 0 1.118.266 2.161.734 3.07m-71.954-19.595c-2.419 0-4.243 1.79-4.243 4.163 0 1.87 1.45 3.391 3.232 3.391 1.595 0 2.753-1.106 2.753-2.63 0-1.162-.915-2.03-1.732-2.03-.532 0-.982.187-1.267.527-.252.302-.349.701-.273 1.127l.886-.158c-.029-.163-.003-.294.077-.391.11-.13.32-.205.577-.205.335 0 .832.475.832 1.13 0 .861-.573 1.73-1.853 1.73-1.308 0-2.332-1.094-2.332-2.491 0-1.89 1.406-3.262 3.343-3.262 1.896 0 3.943 1.538 3.943 4.023 0 .066-.017.128-.02.193a14.7 14.7 0 0 1 .896-.663c-.245-2.762-2.613-4.454-4.819-4.454m-1.011 9.73c-1.703 0-3.06-.716-3.989-1.776.015.258.037.513.037.776 0 .164-.022.321-.028.483a6.216 6.216 0 0 0 4.82 1.355c.145-.35.307-.691.481-1.026a5.158 5.158 0 0 1-1.321.188m57.707 71.29c0 .915.142 1.803.405 2.642h.956a7.944 7.944 0 0 1-.461-2.642c0-1.575.4-3.021 1.103-4.26a14.904 14.904 0 0 1-.952-.146 9.544 9.544 0 0 0-1.051 4.406m-63.004-78.037a6.105 6.105 0 0 1 .6-1.702 16.6 16.6 0 0 1-1.047.142c-.061.147-.135.286-.186.438.23.36.44.736.633 1.122m5.297 9.871a8.564 8.564 0 0 1-4.323-1.141 12.42 12.42 0 0 1-.262.901c1.333.725 2.879 1.133 4.554 1.138.044-.303.082-.607.146-.904-.039.001-.076.006-.115.006m54.6 68.166c0 .905.113 1.788.308 2.642h.928a10.96 10.96 0 0 1-.335-2.642c0-1.92.378-3.608 1.036-5.06-.262-.1-.525-.199-.775-.314a12.81 12.81 0 0 0-1.162 5.374" fill="#f79a1d" transform="translate(66.412 92.151)"/><path d="M0 0c-.262.17-.525.338-.803.49.038.188.079.376.127.561.348.113.687.244 1.018.39A9.824 9.824 0 0 1 0 0m5.654-6.822c-.118-.094-.228-.196-.342-.295-.098.324-.205.644-.327.96.208-.234.428-.459.669-.665m7.349 6.105c0-1.512-1.156-2.741-2.576-2.741-.927 0-1.678.538-1.915 1.37-.225.792.074 1.602.743 2.014l.468-.758c-.377-.232-.45-.676-.354-1.013.129-.452.524-.721 1.058-.721.811 0 1.684.707 1.684 1.849 0 1.596-1.358 2.55-2.672 2.55-1.744 0-3.11-1.464-3.11-3.333 0-1.646.925-2.986 2.314-3.602-.356-.14-.7-.298-1.037-.47-1.325.853-2.169 2.326-2.169 4.072 0 2.369 1.758 4.225 4.002 4.225 1.999 0 3.564-1.512 3.564-3.442m3.963 9.194a11.823 11.823 0 0 1-7.527 2.662c-.947 0-1.869-.109-2.759-.301.003.09.014.179.014.269 0 .219-.02.43-.032.645.898.182 1.827.279 2.777.279 3.154 0 5.877-1.099 8.01-2.806-.172-.241-.326-.496-.483-.748M15.663-2.564a5.763 5.763 0 0 0-.932-1.731c-.359.042-.722.063-1.088.071 1.012.998 1.432 2.406 1.432 3.507 0 2.968-2.581 5.477-5.636 5.477-3.46 0-6.276-2.826-6.276-6.3 0-.577.09-1.159.248-1.731-.343.478-.711.941-1.119 1.373-.007.119-.021.24-.021.358 0 3.966 3.216 7.19 7.168 7.19 2.362 0 4.474-1.302 5.621-3.195-.018-.291-.046-.578-.046-.877 0-1.453.23-2.842.649-4.142M5.052 17.135c-.162.275-.332.544-.517.802 1.578.362 3.217.555 4.904.555 1.491 0 2.911-.154 4.255-.443-.008-.17-.025-.337-.025-.508 0-.139.015-.273.02-.409a19.139 19.139 0 0 1-4.25.469c-1.507 0-2.971-.167-4.387-.466m4.387-8.41c2.664 0 4.861-.911 6.494-2.317a13.036 13.036 0 0 1-.329-.92c-1.508 1.411-3.594 2.345-6.165 2.345-1.251 0-2.426-.222-3.502-.612.138.34.254.689.355 1.047.99.296 2.046.457 3.147.457m0 6.519c1.694 0 3.271-.251 4.734-.685.129-.373.282-.731.455-1.079-1.575.557-3.31.872-5.189.872-1.075 0-2.117-.102-3.124-.28-.074.295-.156.584-.252.867 1.086.199 2.214.305 3.376.305m46.06-40.055c-6.891 0-12.496 5.512-12.496 12.288 0 6.779 5.064 11.891 11.781 11.891 6.839 0 10.925-5.438 10.925-10.698 0-5.885-4.389-10.322-10.21-10.322-5.16 0-9.357 4.095-9.357 9.129 0 4.987 3.715 8.748 8.642 8.748 4.243 0 7.694-3.389 7.694-7.555 0-4.662-3.596-7.178-6.979-7.178-3.522 0-6.179 2.573-6.179 5.985 0 3.146 2.4 5.611 5.464 5.611 2.511 0 4.555-1.983 4.555-4.418 0-2.66-1.932-4.052-3.84-4.052-1.704 0-3.089 1.282-3.089 2.859 0 1.455 1.042 2.593 2.374 2.593.806 0 1.463-.428 1.715-1.119a1.63 1.63 0 0 0-.505-1.818l-.573.681c.307.258.325.6.24.832-.121.334-.449.533-.877.533-.832 0-1.484-.748-1.484-1.702 0-.967.823-1.968 2.199-1.968 1.42 0 2.949.989 2.949 3.161 0 1.696-1.401 3.527-3.664 3.527-2.564 0-4.573-2.073-4.573-4.72 0-2.904 2.273-5.093 5.288-5.093 2.952 0 6.088 2.204 6.088 6.286 0 3.676-3.052 6.664-6.803 6.664-4.491 0-7.751-3.305-7.751-7.857 0-4.541 3.798-8.237 8.466-8.237 5.4 0 9.319 3.966 9.319 9.43 0 4.821-3.753 9.808-10.034 9.808-6.208 0-10.889-4.73-10.889-11.001 0-6.284 5.206-11.395 11.604-11.395 7.029 0 12.536 5.529 12.536 12.588 0 4.973-3.033 10.062-8.306 12.062.082.278.154.557.215.842 5.646-2.151 8.981-7.681 8.981-12.904 0-7.559-5.897-13.481-13.426-13.481M39.59-33.707c0-5.182-2.71-9.195-6.981-10.911-.097.284-.203.565-.321.844 3.923 1.596 6.412 5.295 6.412 10.067 0 5.498-4.77 11.385-11.869 11.385a13.9 13.9 0 0 1-3.846-.533c.289.352.562.722.808 1.119.968.197 1.982.305 3.038.305 7.632 0 12.759-6.346 12.759-12.276m-8.327-8.143c-.165.254-.337.503-.521.745 2.972 1.096 4.873 3.834 4.873 7.398 0 4.043-3.358 8.408-8.784 8.408-4.602 0-8.325-3.155-9.159-7.456a11.738 11.738 0 0 1-.501 1.544c1.372 3.998 5.122 6.803 9.66 6.803 5.977 0 9.675-4.826 9.675-9.299 0-3.818-2.068-6.854-5.243-8.143M15.747-26.973c.435.065.875.151 1.318.276-.49-.6-.925-1.25-1.291-1.949-.188.265-.385.524-.593.775.175.309.366.606.566.898m11.888-9.646c-1.204 0-2.045.786-2.045 1.913 0 .767.532 1.426 1.266 1.565l.167-.876c-.309-.058-.543-.355-.543-.689 0-.755.622-1.023 1.155-1.023 1.021 0 1.791.87 1.791 2.022 0 1.35-1.14 2.406-2.595 2.406-1.551 0-3.156-1.23-3.156-3.288 0-.819.24-1.57.648-2.199-.37.102-.748.192-1.137.265a4.84 4.84 0 0 0-.401 1.934c0 2.344 1.777 4.179 4.046 4.179 1.955 0 3.486-1.447 3.486-3.297 0-1.633-1.178-2.912-2.682-2.912m1.451-2.71c-.301.263-.616.513-.947.747 2.522.209 4.376 2.233 4.376 4.875 0 2.669-2.126 5.43-5.684 5.43-3.302 0-6.199-2.95-6.199-6.312 0-.568.082-1.144.23-1.71-.066.001-.127.01-.194.01-.242 0-.476-.023-.714-.035a7.564 7.564 0 0 0-.213 1.735c0 3.837 3.313 7.202 7.09 7.202 4.116 0 6.575-3.213 6.575-6.32 0-2.811-1.782-5.027-4.32-5.622m37.512-26.492c0-1.65-1.19-2.943-2.71-2.943-1.215 0-2.064.795-2.064 1.933 0 .775.538 1.44 1.279 1.582l.168-.885c-.312-.058-.547-.358-.547-.697 0-.762.627-1.032 1.164-1.032 1.032 0 1.81.878 1.81 2.042 0 1.362-1.151 2.428-2.62 2.428-1.566 0-3.185-1.242-3.185-3.32 0-.918.302-1.747.8-2.419a11.079 11.079 0 0 1-1.011-.053 4.88 4.88 0 0 0-.69 2.472c0 2.366 1.795 4.221 4.086 4.221 1.974 0 3.52-1.463 3.52-3.329m3.118 0c0-2.166-1.05-3.98-2.684-4.988-.313.185-.636.358-.971.515 1.653.771 2.754 2.434 2.754 4.473 0 2.694-2.146 5.481-5.737 5.481-3.335 0-6.26-2.977-6.26-6.373 0-.974.228-1.967.647-2.893a13.602 13.602 0 0 1-.857-.281c-.447 1.02-.691 2.107-.691 3.174 0 3.875 3.347 7.274 7.161 7.274 4.155 0 6.638-3.246 6.638-6.382M1.146-45.777a9.677 9.677 0 0 0 2.287-4.994 12.376 12.376 0 0 1-.876-.226c-.492 3.896-3.739 7.606-8.907 7.606a10.33 10.33 0 0 1-3.36-.558c.17.343.324.698.459 1.067.92.249 1.89.392 2.901.392 1.592 0 3.01-.329 4.25-.886a10.82 10.82 0 0 1 3.246-2.401m4.435-1.152c.533-1.168.9-2.392 1.06-3.625-.263.016-.521.041-.792.041-.04 0-.081-.006-.122-.007a11.94 11.94 0 0 1-1.184 3.692c.346-.052.691-.08 1.038-.101M.234-51.908c-.31-.157-.613-.33-.912-.512.011.136.018.269.018.398 0 2.997-2.606 5.528-5.69 5.528-3.494 0-6.338-2.854-6.338-6.361 0-3.093 2.317-6.4 6.131-6.964a13.066 13.066 0 0 1-.194-.718c-.936.422-1.924.741-2.957.925a8.176 8.176 0 0 0-3.271 3.808 15.872 15.872 0 0 1-.59 2.569c-.006.127-.019.254-.019.38 0 4.004 3.247 7.261 7.238 7.261 3.533 0 6.519-2.881 6.584-6.314M80.617 7.854v-.9a14.244 14.244 0 0 0-1.247-.061c-6.957 0-12.617 5.566-12.617 12.407 0 6.066 4.02 10.802 9.654 11.803.244-.282.505-.546.783-.795-5.526-.68-9.536-5.179-9.536-11.008 0-6.345 5.256-11.507 11.716-11.507.422 0 .837.022 1.247.061m-4.655-73.675c0-.62-.052-1.218-.127-1.803-.38-.303-.746-.623-1.084-.974.196.878.311 1.802.311 2.777 0 5.551-4.815 11.495-11.984 11.495-6.796 0-11.851-4.524-12.512-10.945-.277.132-.563.254-.858.365.818 6.748 6.181 11.48 13.37 11.48 7.707 0 12.884-6.409 12.884-12.395m-3.116 0c0-2.95-1.226-5.434-3.236-7.022a11.99 11.99 0 0 1-.639.615c1.857 1.411 2.975 3.664 2.975 6.407 0 4.082-3.39 8.488-8.868 8.488-5.286 0-9.427-4.12-9.427-9.38 0-1.401.315-2.811.895-4.121-.252-.143-.504-.284-.748-.443-.678 1.458-1.047 3.027-1.047 4.564 0 5.765 4.536 10.28 10.327 10.28 6.033 0 9.768-4.873 9.768-9.388m7.771 83.409v-.962a3.97 3.97 0 0 0-1.247-.214c-1.72 0-3.119 1.296-3.119 2.888 0 1.468 1.053 2.618 2.397 2.618.815 0 1.478-.433 1.732-1.13a1.646 1.646 0 0 0-.51-1.837l-.578.69c.31.259.328.604.242.839-.123.336-.453.538-.886.538-.839 0-1.497-.755-1.497-1.718 0-.977.83-1.988 2.219-1.988.422 0 .849.098 1.247.276m0-3.299v-.92a7.096 7.096 0 0 0-1.247-.113c-3.556 0-6.239 2.598-6.239 6.044 0 3.177 2.424 5.665 5.517 5.665a4.66 4.66 0 0 0 1.969-.446v-1.012a3.691 3.691 0 0 1-1.969.557c-2.588 0-4.616-2.092-4.616-4.764 0-2.933 2.295-5.144 5.338-5.144.415 0 .834.048 1.247.133m-1.969 13.844c.682 0 1.339-.096 1.969-.258v-.928a6.948 6.948 0 0 1-1.969.285c-4.461 0-7.825-3.41-7.825-7.932 0-4.586 3.834-8.318 8.547-8.318.427 0 .84.034 1.247.082v-.907a11.347 11.347 0 0 0-1.247-.075c-5.209 0-9.448 4.135-9.448 9.218 0 5.035 3.752 8.833 8.726 8.833M-2.751-52.022c0-1.527-1.167-2.768-2.601-2.768-.937 0-1.696.543-1.934 1.384-.227.799.074 1.615.75 2.032l.472-.766c-.38-.234-.453-.681-.356-1.021.129-.456.528-.729 1.068-.729.818 0 1.7.714 1.7 1.868 0 1.611-1.371 2.574-2.698 2.574-1.761 0-3.141-1.479-3.141-3.366 0-2.285 1.756-4.007 4.085-4.007.087 0 .167.009.251.012-.181-.288-.35-.584-.51-.888-2.709.127-4.726 2.173-4.726 4.883 0 2.392 1.775 4.266 4.041 4.266 2.018 0 3.599-1.526 3.599-3.474m74.257 90.041c-.151.265-.312.525-.483.78.308.238.604.488.88.759-.111-.47-.203-.948-.255-1.438-.046-.036-.096-.066-.142-.101M-32.774 6.954v.9c6.491.611 11.411 5.947 11.411 12.651 0 3.217-1.253 6.488-3.553 8.954.233.154.457.319.675.494 2.431-2.647 3.778-6.112 3.778-9.448 0-7.21-5.315-12.938-12.311-13.551m0 19.993v.928c3.332-.859 5.801-3.833 5.801-7.37 0-4.137-2.803-6.599-5.801-7.136v.92c2.554.528 4.901 2.666 4.901 6.216 0 3.04-2.07 5.611-4.901 6.442m0-16.79v.907c4.797.562 8.164 4.355 8.164 9.441 0 2.822-1.282 5.694-3.59 7.615.362.069.716.155 1.061.266 2.209-2.081 3.429-5.004 3.429-7.881 0-5.513-3.818-9.762-9.064-10.348m1.731 10.348c0-1.549-.774-2.49-1.731-2.917v-.962c1.439.477 2.631 1.781 2.631 3.879 0 1.773-1.081 3.296-2.631 4.014v-1.012c1.094-.675 1.731-1.862 1.731-3.002" fill="#df1d40" transform="translate(32.769 73.696)"/><path d="M0 0c0-2.431-.944-4.6-2.49-6.193-.245.173-.499.336-.761.494C-1.785-4.254-.892-2.25-.892 0c0 5.061-3.888 8.877-9.044 8.877-6.238 0-9.606-5.005-9.606-9.714 0-2.071.621-3.997 1.676-5.62-.243-.178-.469-.373-.698-.566a11.164 11.164 0 0 0-1.868 6.186c0 5.142 3.679 10.607 10.496 10.607C-4.365 9.77 0 5.478 0 0m3.326 0c0-3.311-1.297-6.267-3.423-8.434-.19.231-.383.459-.592.678A11.06 11.06 0 0 1 2.434 0c0 5.926-4.627 12.059-12.37 12.059-8.42 0-12.826-6.488-12.826-12.896 0-2.933.942-5.645 2.529-7.872a13.632 13.632 0 0 1-.568-.726c-1.784 2.412-2.853 5.379-2.853 8.598 0 6.851 4.712 13.786 13.718 13.786C-1.634 12.949 3.326 6.365 3.326 0m-9.688 0c0-1.482-1.17-2.686-2.607-2.686-1.142 0-1.769.688-1.975 1.332a1.748 1.748 0 0 0 .659 1.987l.517-.727a.87.87 0 0 1-.327-.989c.143-.445.564-.712 1.126-.712 1.059 0 1.715.932 1.715 1.795 0 1.426-1.177 2.544-2.682 2.544-1.944 0-3.147-1.755-3.147-3.381 0-1.192.538-2.405 1.5-3.192a14.413 14.413 0 0 1-1.109-.174 4.973 4.973 0 0 0-1.283 3.366c0 2.055 1.545 4.273 4.039 4.273 2.004 0 3.574-1.51 3.574-3.436m3.18 0c0-1.979-.863-3.633-2.266-4.662-.362.129-.735.238-1.116.335C-5.028-3.53-4.075-1.969-4.075 0c0 3.203-2.573 5.712-5.861 5.712-3.559 0-6.347-2.895-6.347-6.589 0-1.494.464-2.881 1.257-4.029-.283-.114-.56-.231-.829-.36a7.962 7.962 0 0 0-1.319 4.389c0 4.194 3.179 7.481 7.238 7.481 3.787 0 6.754-2.901 6.754-6.604m60.827 14.688c0-1.905-.487-3.698-1.339-5.27-.28.105-.565.201-.859.285a10.147 10.147 0 0 1 1.307 4.985c0 5.494-4.273 11.178-11.422 11.178-7.361 0-11.917-6.33-11.917-12.194 0-5.027 3.189-9.354 7.734-11.24a12.215 12.215 0 0 1-.265-.859c-4.909 2.003-8.36 6.671-8.36 12.099 0 7.216 5.746 13.086 12.808 13.086 6.904 0 12.313-5.303 12.313-12.07m-6.249 0c0-2.549-1.808-5.258-5.157-5.258-2.474 0-4.486 1.903-4.486 4.242 0 2.387 1.819 3.812 3.579 3.812 1.737 0 3.097-1.228 3.097-2.796 0-1.449-.883-2.422-2.198-2.422-.604 0-1.167.318-1.468.828-.272.461-.288.997-.046 1.436l.78-.43c-.127-.232-.019-.463.033-.553a.803.803 0 0 1 .701-.39c.964 0 1.308.79 1.308 1.531 0 .935-.826 1.904-2.207 1.904-1.322 0-2.689-1.092-2.689-2.92 0-1.848 1.613-3.35 3.596-3.35 2.771 0 4.266 2.248 4.266 4.366 0 2.788-2.272 4.972-5.173 4.972-3.177 0-5.763-2.685-5.763-5.988 0-2.971 2.202-5.459 5.147-6.111a11.257 11.257 0 0 1-.797-.715c-3.037.931-5.24 3.637-5.24 6.826 0 3.793 2.984 6.881 6.653 6.881 3.4 0 6.064-2.576 6.064-5.865m3.121 0c0-1.726-.488-3.293-1.339-4.584-.311.023-.621.046-.945.046-.046 0-.09-.005-.136-.005.962 1.23 1.529 2.793 1.529 4.543 0 4.485-3.72 8.135-8.294 8.135-4.944 0-8.818-4.019-8.818-9.151 0-3.709 2.535-7.076 5.974-8.545a11.63 11.63 0 0 1-.48-.787c-3.718 1.609-6.384 5.232-6.384 9.332 0 5.632 4.264 10.043 9.708 10.043 5.064 0 9.185-4.051 9.185-9.027M44.956-53.52c.95.378 1.831.888 2.623 1.505a13.823 13.823 0 0 1-.295-1.312 11.495 11.495 0 0 0-.865-.512c-.468.137-.955.245-1.463.319m-9.191-2.65a12.762 12.762 0 0 1-.718-.659c-3.238 1.484-5.784 4.134-7.041 7.38.254.192.501.392.741.601 1.171-3.27 3.734-5.929 7.018-7.322m3.54 2.053a11.653 11.653 0 0 1-1.374-.612c-3.675 1.097-6.571 4.092-7.404 7.734.258.324.507.657.737 1.005.549-3.99 3.934-7.378 8.041-8.127m12.95 8.935c.024.018.051.034.076.051-.32-.23-.632-.47-.927-.727.089.441.14.895.172 1.354.221-.231.441-.463.679-.678m25.812 10.008v-.975a12.234 12.234 0 0 0-4.083-.705c-.607 0-1.2.063-1.781.157.051.294.086.592.112.892.545-.089 1.1-.148 1.669-.148 1.38 0 2.771.267 4.083.779m0 15.292v-1.437c-1.072 1.63-2.958 2.717-5.107 2.717-3.295 0-6.009-2.68-6.314-6.094a12.27 12.27 0 0 1-.848.453c.506 3.692 3.52 6.541 7.162 6.541a7.03 7.03 0 0 0 5.107-2.18m0-7.597v-1.408a5.8 5.8 0 0 0-4.083-1.658c-.921 0-1.863.238-2.694.695a11.58 11.58 0 0 1-2.528 3.558 5.74 5.74 0 0 0-.085.955c0 2.499 1.921 4.532 4.283 4.532 2.409 0 3.849-1.838 3.849-3.615 0-1.755-1.241-3.129-2.825-3.129-1.462 0-2.444.893-2.444 2.221 0 .609.321 1.178.836 1.481.465.275 1.006.292 1.451.046l-.435-.787c-.232.126-.468.019-.558-.033a.809.809 0 0 1-.394-.707c0-.974.798-1.32 1.544-1.32.946 0 1.924.833 1.924 2.228 0 1.335-1.102 2.715-2.948 2.715-1.865 0-3.383-1.629-3.383-3.632 0-2.798 2.271-4.308 4.407-4.308 1.707 0 3.18.851 4.083 2.166m-17.274 4.416c-.071.002-.14.01-.212.01-.236 0-.467-.022-.701-.036 1.035 6.569 6.497 11.603 13.08 11.603.186 0 .369-.02.554-.028.142-.312.292-.622.46-.922-.339.03-.677.049-1.014.049-6.079 0-11.136-4.618-12.167-10.676m15.116 8.037a13.037 13.037 0 0 1 2.158-1.802v-.135c-1.455.915-3.204 1.446-5.107 1.446-4.41 0-8.341-3.546-9.228-7.959-.291.079-.584.152-.884.208.958 4.862 5.199 8.652 10.112 8.652 1.03 0 2.019-.146 2.949-.41m2.158-16.652v-1.023a8.914 8.914 0 0 0-5.761-.835c-.035.325-.083.645-.142.961a7.773 7.773 0 0 1 1.82-.22c1.487 0 2.879.411 4.083 1.117M49.354-43.839c0-4.714-3.593-8.269-8.358-8.269-4.209 0-7.634 3.25-7.634 7.245 0 3.831 3.014 6.947 6.717 6.947 3.434 0 6.125-2.602 6.125-5.923 0-2.573-1.826-5.307-5.208-5.307-2.499 0-4.531 1.921-4.531 4.283 0 2.409 1.838 3.848 3.614 3.848 1.755 0 3.129-1.24 3.129-2.824 0-1.462-.892-2.444-2.221-2.444-.61 0-1.178.32-1.482.837-.274.464-.291 1.007-.046 1.45l.788-.436c-.129-.233-.02-.467.033-.557a.811.811 0 0 1 .707-.394c.974 0 1.321.798 1.321 1.544 0 .945-.833 1.924-2.229 1.924-1.334 0-2.714-1.103-2.714-2.948 0-1.866 1.629-3.383 3.631-3.383 2.798 0 4.307 2.27 4.307 4.407 0 2.816-2.294 5.023-5.224 5.023-3.207 0-5.816-2.713-5.816-6.047 0-3.499 3.02-6.345 6.733-6.345 4.251 0 7.458 3.168 7.458 7.369 0 2.719-1.359 5.125-3.438 6.621.338.112.672.237.996.378 2.04-1.674 3.342-4.189 3.342-6.999M4.284-62.872H1.807c1.443.775 3.153 1.243 5.135 1.243 1.808 0 3.487-.452 4.937-1.243H9.525a9.872 9.872 0 0 1-2.583.343c-.956 0-1.837-.129-2.658-.343m12.773 0h-1.236c-2.133 2.131-5.141 3.555-8.879 3.555-3.931 0-6.984-1.41-9.143-3.555h-1.265c2.327 2.663 5.812 4.455 10.408 4.455 4.369 0 7.81-1.814 10.115-4.455m16.314 28.27c-.115.117-.212.245-.321.366.116-.129.246-.246.369-.37l-.043-.029c-.002.011-.002.023-.005.033M9.525 50.514h2.354c3.062-1.67 5.095-4.868 5.095-8.621 0-.781-.106-1.531-.287-2.248a11.447 11.447 0 0 1-1.036-.348 8.18 8.18 0 0 1 .423 2.596c0 4.221-2.682 7.579-6.549 8.621m-7.718 0h2.477c-4.587-1.197-7.041-5.432-7.041-9.465 0-5.791 4.745-10.502 10.578-10.502.288 0 .569.021.851.041a12.811 12.811 0 0 1-.119-.906c-.243-.014-.484-.036-.732-.036-6.329 0-11.478 5.116-11.478 11.403 0 3.696 1.893 7.548 5.464 9.465m11.953-8.621c0-3.391-2.498-5.852-5.939-5.852-2.78 0-4.958 2.2-4.958 5.008 0 2.075 1.56 4.314 4.079 4.314 2.023 0 3.607-1.524 3.607-3.47 0-1.495-1.181-2.711-2.632-2.711-1.153 0-1.786.695-1.993 1.345a1.764 1.764 0 0 0 .665 2.005l.522-.732a.878.878 0 0 1-.33-.999c.144-.45.569-.719 1.136-.719 1.07 0 1.732.939 1.732 1.811 0 1.441-1.189 2.57-2.707 2.57-1.963 0-3.178-1.773-3.178-3.414 0-2.02 1.517-4.108 4.057-4.108 2.967 0 5.039 2.037 5.039 4.952 0 3.234-2.599 5.767-5.918 5.767-3.594 0-6.41-2.922-6.41-6.652 0-3.987 3.27-7.231 7.289-7.231.694 0 1.36.089 1.999.241a11.967 11.967 0 0 1-.46-1.009 9.712 9.712 0 0 0-1.539-.132c-4.515 0-8.189 3.647-8.189 8.131 0 4.235 3.211 7.553 7.31 7.553 3.823 0 6.818-2.929 6.818-6.668m19.897-80.306c.011.239.034.474.034.718 0 .184-.022.364-.028.547.474.419.987.793 1.536 1.112a10.5 10.5 0 0 1 .931-.525 8.73 8.73 0 0 1-2.473-1.852m14.491 2.799c-.001-.034-.005-.068-.005-.102-.019.019-.041.034-.06.053.022.015.043.033.065.049m-83.466-.534v.975c3.963 1.547 7.203 5.33 7.203 10.754a11.64 11.64 0 0 1-1.335 5.472c.331-.03.666-.048 1.003-.052a12.6 12.6 0 0 0 1.233-5.42c0-5.501-3.34-10.05-8.104-11.729m0 19.184v.136a12.815 12.815 0 0 1 2.835-1.439 9.602 9.602 0 0 0 2.197-6.152 9.294 9.294 0 0 0-5.032-8.281v1.024a8.403 8.403 0 0 1 4.132 7.257c0 3.157-1.627 5.879-4.132 7.455m.939-7.455c0 1.14-.348 2.2-.939 3.099v1.437c1.137-1.196 1.839-2.787 1.839-4.536 0-1.78-.703-3.356-1.839-4.466v1.408c.587.856.939 1.904.939 3.058M-6.91 41.049c0 3.421 1.168 6.859 3.444 9.465h1.265c-2.511-2.494-3.809-5.987-3.809-9.465 0-3.078 1.032-5.914 2.752-8.21-.453.174-.917.324-1.396.442a14.523 14.523 0 0 0-2.256 7.768m26.341.844c0-.626-.063-1.234-.158-1.829.235.013.467.033.706.033.07 0 .138-.009.207-.01.086.59.146 1.188.146 1.806 0 3.077-1.159 6.196-3.275 8.621h-1.236c2.327-2.326 3.61-5.497 3.61-8.621" fill="#931b4d" transform="translate(35.318 62.872)"/></pattern></defs><path d="M148.88 133.59a.262.262 0 0 0-.264.264v141.27c0 .146.117.263.264.263h141.27a.262.262 0 0 0 .264-.263v-141.27a.262.262 0 0 0-.264-.264H148.88z" fill="url(#b)" transform="translate(-148.62 -133.59)"/></svg>